mtllib materials.mtl
v -5.960464E-08 -0.2600001 0.27
v 0.1349999 -0.26 0.2338268
v 0.1349999 -0.27 0.2338268
v -4.656613E-08 -0.27 0.2699999
v 0.2338268 -0.26 0.135
v 0.2338268 -0.27 0.135
v 0.27 -0.26 0
v 0.27 -0.27 0
v 0.2338269 -0.26 -0.135
v 0.2338269 -0.27 -0.135
v 0.1350001 -0.26 -0.2338269
v 0.1350001 -0.27 -0.2338269
v 0 -0.2599999 -0.27
v 2.421439E-08 -0.2699999 -0.27
v -0.135 -0.26 -0.2338269
v -0.135 -0.27 -0.2338269
v -0.2338268 -0.26 -0.1350001
v -0.2338268 -0.27 -0.1350001
v -0.27 -0.26 -5.960464E-08
v -0.27 -0.27 -1.192093E-07
v -0.2338269 -0.26 0.1349999
v -0.2338269 -0.27 0.1349999
v -0.135 -0.26 0.2338269
v -0.135 -0.27 0.2338268
v -0.1534138 -0.19 0.08857346
v -0.08857346 -0.19 0.1534138
v 0.02000001 -0.53 -0.01000011
v -0.177147 -0.19 0
v -0.1534138 -0.19 -0.08857352
v -0.08857346 -0.19 -0.1534138
v 0 -0.1899999 -0.1771469
v 0.08857358 -0.19 -0.1534138
v 0.1534138 -0.19 -0.08857346
v 0.177147 -0.19 0
v 0.1534138 -0.19 0.08857352
v 0.08857346 -0.19 0.1534138
v 0 -0.19 0.177147
vn 0.258819 -2.711196E-06 0.9659259
vn 0.7071064 -3.788558E-07 0.7071072
vn 0.9659259 -6.560652E-07 0.258819
vn 0.9659259 -1.438518E-06 -0.2588189
vn 0.707107 -7.650412E-07 -0.7071066
vn 0.2588189 1.965252E-06 -0.9659259
vn -0.2588187 2.781925E-06 -0.9659259
vn -0.7071068 8.154673E-07 -0.7071069
vn -0.9659259 7.050046E-07 -0.258819
vn -0.965926 -9.806544E-07 0.2588185
vn -0.7071066 -5.292812E-06 0.707107
vn -0.2588194 -6.287935E-06 0.9659258
vn -0.4350576 0.7883211 0.4350572
vn 0.1811629 -0.7141823 0.6761093
vn 0.5060658 -0.6984231 0.5060658
vn 0.7042466 -0.6844181 0.1887023
vn 0.7112728 -0.6765858 -0.1905849
vn 0.5199965 -0.6776485 -0.5199963
vn 0.1880173 -0.6872268 -0.7016901
vn -0.1843136 -0.7020449 -0.6878674
vn -0.4924899 -0.7175705 -0.49249
vn -0.6603869 -0.7297792 -0.1769503
vn -0.6538637 -0.736048 0.175202
vn -0.4792981 -0.7352189 0.4792979
vn -0.1775948 -0.727438 0.6627926
vn -0.5942994 0.7883211 0.1592422
vn -0.5942995 0.7883211 -0.159242
vn -0.4350572 0.7883212 -0.4350575
vn -0.159242 0.7883214 -0.5942992
vn 0.1592417 0.7883213 -0.5942993
vn 0.4350576 0.7883211 -0.4350572
vn 0.5942996 0.7883211 -0.1592418
vn 0.5942995 0.7883211 0.1592422
vn 0.4350573 0.7883209 0.4350578
vn 0.1592421 0.7883211 0.5942994
vn -0.1592418 0.788321 0.5942996
vn -6.842576E-15 1 1.396911E-07
vt 0.01309572 0.01319433
vt 0.007125658 0.02583131
vt 0.006221482 0.02540416
vt 0.01219155 0.01276718
vt -0.0002478352 0.03829905
vt -0.006705815 0.05069378
vt -0.007592659 0.05023171
vt -0.001134679 0.03783698
vt -0.01895197 0.05028801
vt -0.02786604 0.0610525
vt -0.02863624 0.0604147
vt -0.01972217 0.04965021
vt -0.04834568 0.02606501
vt -0.06211894 0.02843826
vt -0.06228874 0.02745279
vt -0.04851549 0.02507953
vt -0.0395003 -0.01229103
vt -0.04984165 -0.0216927
vt -0.04916896 -0.02243263
vt -0.03882762 -0.01303095
vt -0.02063315 -0.0008658174
vt -0.02757632 -0.01299543
vt -0.02670844 -0.01349221
vt -0.01976527 -0.001362601
vt -0.007125542 0.02583123
vt -0.01309561 0.01319425
vt -0.01219143 0.01276709
vt -0.006221365 0.02540408
vt 0.00670587 0.05069377
vt 0.0002478891 0.03829904
vt 0.001134731 0.03783697
vt 0.007592713 0.0502317
vt 0.02786607 0.06105249
vt 0.018952 0.050288
vt 0.0197222 0.0496502
vt 0.02863627 0.06041469
vt 0.0621189 0.02843832
vt 0.04834564 0.02606504
vt 0.04851545 0.02507957
vt 0.06228871 0.02745285
vt 0.04984141 -0.02169312
vt 0.03950012 -0.01229137
vt 0.03882743 -0.01303129
vt 0.04916872 -0.02243304
vt 0.02757626 -0.01299553
vt 0.02063312 -0.000865913
vt 0.01976525 -0.001362695
vt 0.02670839 -0.01349231
vt 0.04334655 0.006024772
vt 0.05619925 0.0005344894
vt 0.05845854 0.01194118
vt 0.05002589 0.01554335
vt -0.01326197 0.002952696
vt -0.01693705 0.01643708
vt -0.05151336 0.002041097
vt -0.02048073 0.02725983
vt -0.0285241 0.03868958
vt -0.05543294 0.01380215
vt -0.0337211 0.041875
vt -0.04556014 0.04930279
vt -0.05984961 0.01616955
vt -0.04883315 0.04279592
vt -0.06276546 0.04390299
vt -0.059043 0.008187266
vt -0.05773031 0.03732467
vt -0.07049203 0.03162614
vt -0.04904995 0.002480438
vt -0.05930125 0.03809535
vt -0.06859808 0.02765965
vt -0.03611264 0.01031905
vt -0.05909725 0.04508847
vt -0.06421585 0.03208327
vt -0.02688082 0.02725305
vt -0.0609895 0.0494706
vt -0.06131067 0.03549806
vt -0.02378092 0.04374727
vt -0.06749466 0.03909973
vt -0.06134901 0.02654721
vt -0.03091874 0.05087824
vt -0.06876069 -0.007484543
vt -0.0550443 -0.01016701
vt -0.05497064 0.02895493
vt -0.03219772 -0.04015774
vt -0.02342342 -0.029279
vt -0.0572233 -0.01008697
vt -0.0144356 -0.02353995
vt -0.01290664 -0.009647609
vt -0.05115197 -0.01078556
vt 0.05186957 0.004612541
vt 0.0658062 0.005663984
vt 0.06255387 0.01682818
vt 0.05341005 0.01613833
vt 0.05589368 0.00582606
vt 0.06784602 0.01307015
vt 0.05989382 0.02155422
vt 0.05205189 0.01680137
vt 0.05629607 0.002413901
vt 0.06426449 0.01389603
vt 0.05354738 0.0184083
vt 0.04831931 0.01087487
vt 0.05637015 -0.006271057
vt 0.0594575 0.007359906
vt 0.04783046 0.007529299
vt 0.04580485 -0.001413972
vt 0.05910369 -0.01404631
vt 0.05645869 -0.0003226399
vt 0.04574186 -0.004835564
vt 0.04747725 -0.01383967
vt 0.06617972 -0.006986358
vt 0.05635949 0.002958392
vt 0.04995263 -0.006745679
vt 0.05639568 -0.01327043
vt 0.06190088 0.03070557
vt 0.04810797 0.02844939
vt 0.0523163 0.01760933
vt 0.06136582 0.01908961
vt 0.03827583 0.05246506
vt 0.030818 0.04064492
vt 0.04172245 0.0366064
vt 0.04661554 0.0443616
vt 0.0277616 0.04665599
vt 0.02702404 0.03269924
vt 0.03851224 0.0344987
vt 0.03899615 0.04365572
vt 0.02784153 0.03143246
vt 0.03251534 0.01826089
vt 0.04243389 0.02433042
vt 0.0393674 0.03297229
vt 0.03396841 0.01569335
vt 0.04330137 0.005289957
vt 0.05016536 0.01467625
vt 0.04404201 0.02150191
vt 0.04631335 0.004570716
vt 0.05460045 0.0006452498
vt 0.06374002 0.001389243
vt 0.07128312 0.006603348
vt 0.07520859 0.01489045
vt 0.07446459 0.02403001
vt 0.06925049 0.03157312
vt 0.06096339 0.03549859
vt 0.05182382 0.03475459
vt 0.04428072 0.02954048
vt 0.04035526 0.02125338
vt 0.04109925 0.01211382
o group655375255
g mesh655375255
usemtl mat9
f 4/4/1 3/3/1 2/2/1 1/1/1
f 3/8/2 6/7/2 5/6/2 2/5/2
f 6/12/3 8/11/3 7/10/3 5/9/3
f 8/16/4 10/15/4 9/14/4 7/13/4
f 10/20/5 12/19/5 11/18/5 9/17/5
f 12/24/6 14/23/6 13/22/6 11/21/6
f 14/28/7 16/27/7 15/26/7 13/25/7
f 16/32/8 18/31/8 17/30/8 15/29/8
f 18/36/9 20/35/9 19/34/9 17/33/9
f 20/40/10 22/39/10 21/38/10 19/37/10
f 22/44/11 24/43/11 23/42/11 21/41/11
f 24/48/12 4/47/12 1/46/12 23/45/12
f 26/52/13 25/51/13 21/50/13 23/49/13
f 27/55/14 3/54/14 4/53/14
f 27/58/15 6/57/15 3/56/15
f 27/61/16 8/60/16 6/59/16
f 27/64/17 10/63/17 8/62/17
f 27/67/18 12/66/18 10/65/18
f 27/70/19 14/69/19 12/68/19
f 27/73/20 16/72/20 14/71/20
f 27/76/21 18/75/21 16/74/21
f 27/79/22 20/78/22 18/77/22
f 27/82/23 22/81/23 20/80/23
f 27/85/24 24/84/24 22/83/24
f 27/88/25 4/87/25 24/86/25
f 25/92/26 28/91/26 19/90/26 21/89/26
f 28/96/27 29/95/27 17/94/27 19/93/27
f 29/100/28 30/99/28 15/98/28 17/97/28
f 30/104/29 31/103/29 13/102/29 15/101/29
f 31/108/30 32/107/30 11/106/30 13/105/30
f 32/112/31 33/111/31 9/110/31 11/109/31
f 33/116/32 34/115/32 7/114/32 9/113/32
f 34/120/33 35/119/33 5/118/33 7/117/33
f 35/124/34 36/123/34 2/122/34 5/121/34
f 36/128/35 37/127/35 1/126/35 2/125/35
f 37/132/36 26/131/36 23/130/36 1/129/36
f 37/144/37 36/143/37 35/142/37 34/141/37 33/140/37 32/139/37 31/138/37 30/137/37 29/136/37 28/135/37 25/134/37 26/133/37
